<svg id="Illustrations" xmlns="http://www.w3.org/2000/svg" viewBox="0 0 96 96"><defs><style>.cls-1{fill:#ddd;}.cls-2{fill:#aaa;}</style></defs><title>2147_LISTING-QUALITY_r2v4c_MECH_OL.png</title><path class="cls-1" d="M-245.08,52.61a1,1,0,0,0-1.31-.53l-8.94,3.83-2.36-1A3,3,0,0,0-257,53a3,3,0,0,0-3-3,3,3,0,0,0-3,3,3,3,0,0,0,2.73,3l2.4,1-2.4,1A3,3,0,0,0-263,61a3,3,0,0,0,3,3,3,3,0,0,0,3-3,3,3,0,0,0-.7-1.9l2.36-1,8.94,3.83A1,1,0,0,0-246,62a1,1,0,0,0,.92-.61,1,1,0,0,0-.53-1.31L-252.8,57l7.19-3.08A1,1,0,0,0-245.08,52.61ZM-260,54a1,1,0,0,1-1-1,1,1,0,0,1,1-1,1,1,0,0,1,1,1A1,1,0,0,1-260,54Zm0,8a1,1,0,0,1-1-1,1,1,0,0,1,1-1,1,1,0,0,1,1,1A1,1,0,0,1-260,62ZM216,36H204V27.51a11.5,11.5,0,1,0-23,0V36H169a1,1,0,0,0-1,1V79a1,1,0,0,0,1,1h47a1,1,0,0,0,1-1V37A1,1,0,0,0,216,36Zm-33-8.49a9.5,9.5,0,1,1,19,0V36H183ZM215,78H170V38h45ZM178.42,58.92,182,61.47l-1.42,4.32a1,1,0,0,0,.15.91,1,1,0,0,0,.83.4l4.28-.15,1.26,4.33a1,1,0,0,0,1.59.5L192.08,69l3.41,2.7a1,1,0,0,0,1.58-.52l1.2-4.35,4.28.08a1,1,0,0,0,.83-.41,1,1,0,0,0,.14-.91L202,61.31l3.55-2.61a1,1,0,0,0,0-1.62L202,54.53l1.42-4.32a1,1,0,0,0-.15-.91,1,1,0,0,0-.83-.4l-4.28.15-1.26-4.33a1,1,0,0,0-1.59-.5L191.92,47l-3.41-2.7a1,1,0,0,0-1.58.52l-1.2,4.35-4.28-.08a.92.92,0,0,0-.83.41,1,1,0,0,0-.14.91L182,54.69l-3.55,2.61a1,1,0,0,0,0,1.62Zm5.32-3.05a1,1,0,0,0,.35-1.13l-1.26-3.64,3.63.07a1,1,0,0,0,1-.73l1-3.64L191.31,49a1,1,0,0,0,1.25,0l2.82-2.3,1.06,3.63a1,1,0,0,0,1,.72l3.63-.13-1.2,3.66a1,1,0,0,0,.37,1.13l3.06,2.17-3,2.22a1,1,0,0,0-.35,1.13l1.26,3.64-3.63-.07a1.06,1.06,0,0,0-1,.73l-1,3.64L192.69,67a1,1,0,0,0-1.25,0l-2.82,2.3-1.06-3.63a1,1,0,0,0-1-.72h0l-3.62.13,1.2-3.66a1,1,0,0,0-.37-1.13l-3.06-2.17ZM192.17,63c2.85,0,5-1.35,5-3.14a1,1,0,0,0-.11-.45l-4-7.86a1,1,0,0,0-1.78,0l-4,7.86a1,1,0,0,0-.11.45C187.17,61.65,189.32,63,192.17,63Zm0-8.8,3,5.8a4.86,4.86,0,0,1-5.9,0ZM-56,69h-78a1,1,0,0,0-1,1V85a1,1,0,0,0,1,1h78a1,1,0,0,0,1-1V70A1,1,0,0,0-56,69Zm-1,15h-76V71h4v6a1,1,0,0,0,1,1,1,1,0,0,0,1-1V71h4v9a1,1,0,0,0,1,1,1,1,0,0,0,1-1V71h4v6a1,1,0,0,0,1,1,1,1,0,0,0,1-1V71h4v9a1,1,0,0,0,1,1,1,1,0,0,0,1-1V71h4v6a1,1,0,0,0,1,1,1,1,0,0,0,1-1V71h4v9a1,1,0,0,0,1,1,1,1,0,0,0,1-1V71h4v6a1,1,0,0,0,1,1,1,1,0,0,0,1-1V71h4v9a1,1,0,0,0,1,1,1,1,0,0,0,1-1V71h4v6a1,1,0,0,0,1,1,1,1,0,0,0,1-1V71h4v9a1,1,0,0,0,1,1,1,1,0,0,0,1-1V71h4v6a1,1,0,0,0,1,1,1,1,0,0,0,1-1V71h4v9a1,1,0,0,0,1,1,1,1,0,0,0,1-1V71h4ZM80,77V15a1,1,0,0,0-1-1H17a1,1,0,0,0-1,1V77a1,1,0,0,0,1,1h6.4l1.05-2H18V48H47V76H43.55l1.05,2H52v5a1,1,0,0,0,1,1H72a1,1,0,0,0,1-1V78h6A1,1,0,0,0,80,77ZM18,16H41.93A26.3,26.3,0,0,1,18,39.93ZM47,46H18V41.93A28.28,28.28,0,0,0,43.93,16H47ZM71,82H54V68H71Zm7-6H73V67a1,1,0,0,0-1-1H64V62.65l5.65-4.89a1,1,0,1,0-1.31-1.51L64,60V53a1,1,0,0,0-2,0v7l-4.35-3.73a1,1,0,0,0-1.3,1.52L62,62.6V66H53a1,1,0,0,0-1,1v9H49V48H78Zm0-30H49V16h3.07A28.28,28.28,0,0,0,78,41.93Zm0-6.07A26.3,26.3,0,0,1,54.07,16H78ZM193-93v15a1,1,0,0,0,1,1h15a1,1,0,0,0,1-1V-93a1,1,0,0,0-1-1H194A1,1,0,0,0,193-93Zm2,1h13v13H195Zm0-5a9,9,0,0,0,9-9,9,9,0,0,0-9-9,9,9,0,0,0-9,9A9,9,0,0,0,195-97Zm0-16a7,7,0,0,1,7,7,7,7,0,0,1-7,7,7,7,0,0,1-7-7A7,7,0,0,1,195-113Zm-3,49a30,30,0,0,0,30-30,30.05,30.05,0,0,0-21-28.62v-1.25a13,13,0,0,0,7.5,2.39,13,13,0,0,0,9.21-3.81,1,1,0,0,0,0-1.41,1,1,0,0,0-1.41,0,11,11,0,0,1-15.58,0,1,1,0,0,0-.33-.22A1,1,0,0,0,200-127h-.12l5.89-7.16a1,1,0,0,0,.22-.76,1,1,0,0,0-.4-.68l-3-2.2a1,1,0,0,0-1-.12L197-136.08l-4.63-1.85a1,1,0,0,0-.74,0L187-136.1l-3.6-1.8a1,1,0,0,0-.89,0l-4,2a1,1,0,0,0-.53.68,1,1,0,0,0,.2.84l6,7.37H184a1,1,0,0,0-1,1v3.38A30.05,30.05,0,0,0,162-94,30,30,0,0,0,192-64Zm-11.44-70.66,2.44-1.22,3.55,1.78a1,1,0,0,0,.82,0l4.63-1.85,4.63,1.85a1,1,0,0,0,.74,0l4.48-1.79,1.7,1.25L197.29-127h-10.5ZM199-125v2H185v-2Zm-14.4,4h14.8A28,28,0,0,1,220-94a28,28,0,0,1-28,28,28,28,0,0,1-28-28A28,28,0,0,1,184.6-121ZM300,170v51a1,1,0,0,0,1,1h68a1,1,0,0,0,1-1V170a1,1,0,0,0-1-1H301A1,1,0,0,0,300,170Zm2,1h66v49H302ZM373.69,66.27l-18-17a1,1,0,0,0-1.39,0l-1.79,1.79-4.69-4.69a20.08,20.08,0,1,0-1.41,1.41l4.69,4.69-1.79,1.79a1,1,0,0,0,0,1.43l18,17a1,1,0,0,0,1.39,0l5-5a1,1,0,0,0,0-1.43ZM333,51a18,18,0,1,1,18-18A18,18,0,0,1,333,51Zm35,19.61L351.43,55,355,51.39,371.57,67ZM327.59-77.94a4.42,4.42,0,0,0,3.1-1.34,1,1,0,0,0,0-1.41,1,1,0,0,0-1.41,0,2.53,2.53,0,0,1-3.63,0,1,1,0,0,0-1.41,0,1,1,0,0,0,0,1.41A5,5,0,0,0,327.59-77.94Zm11.69,4.25A6.23,6.23,0,0,1,335-72a6.23,6.23,0,0,1-4.28-1.69,1,1,0,0,0-1.41,0,1,1,0,0,0,0,1.41A8.12,8.12,0,0,0,335-70a8.22,8.22,0,0,0,5.72-2.31,1,1,0,0,0,0-1.41A1,1,0,0,0,340-74,1,1,0,0,0,339.28-73.69Zm3.31-4.25a4.42,4.42,0,0,0,3.1-1.34,1,1,0,0,0,0-1.41,1,1,0,0,0-1.41,0,2.53,2.53,0,0,1-3.63,0,1,1,0,0,0-1.41,0,1,1,0,0,0,0,1.41A5,5,0,0,0,342.59-77.94ZM323.92-62.6a24.22,24.22,0,0,0-9.74,8,1,1,0,0,0,.24,1.39A1,1,0,0,0,315-53v0h8v-2h-5.94a22.65,22.65,0,0,1,9.43-6.5A24.88,24.88,0,0,0,335-60a24.88,24.88,0,0,0,8.52-1.5,22.65,22.65,0,0,1,9.43,6.5H347v2h8a1,1,0,0,0,.58-.18,1,1,0,0,0,.24-1.39,24.22,24.22,0,0,0-9.74-8A25,25,0,0,0,360-85a24.88,24.88,0,0,0-6.07-16.3,6.07,6.07,0,0,1-.75,2.24A22.88,22.88,0,0,1,358-85a23,23,0,0,1-14.53,21.38,22.77,22.77,0,0,1-3.62,1.11A23,23,0,0,1,335-62a23,23,0,0,1-4.85-.52,22.77,22.77,0,0,1-3.62-1.11A23,23,0,0,1,312-85a22.88,22.88,0,0,1,4.81-14.05,6.07,6.07,0,0,1-.75-2.24A24.88,24.88,0,0,0,310-85,25,25,0,0,0,323.92-62.6Zm-522,132.23,0-.07a1,1,0,0,0-.07-.13l-16-23A1,1,0,0,0-215,46h-4.32l1.09,2h2.7l14.61,21h-76.24l13.7-21h27.68l1.09-2H-264a1,1,0,0,0-.84.45l-15,23a1,1,0,0,0-.05.11l0,.08A1,1,0,0,0-280,70V95h2V71h6V93h-3v2h8V93h-3V79h62V93h-3v2h8V93h-3V71h6V95h2V70A1,1,0,0,0-198.07,69.64ZM-208,77h-62V71h62ZM381,232h2v-8h-2Zm-92-8h-2v8h2Zm0-48h-2v8h2Zm0,16h-2v8h2Zm0,16h-2v8h2Zm92,8h2v-8h-2Zm-50,28h8v-2h-8Zm50-60h2v-8h-2Zm-82,60h8v-2h-8Zm16,0h8v-2h-8Zm-26-84h-2v8h2Zm-2-8h2v-2h2v-2h-4Zm94,16h2v-8h-2Zm-2-18h2v2h2v-4h-4Zm-90,90h-2v4h4v-2h-2Zm92-40h2v-8h-2Zm-74-52h-8v2h8Zm8,2h8v-2h-8Zm24,0v-2h-8v2Zm42,92h-2v2h4v-4h-2Zm-34-92h8v-2h-8Zm16,94h8v-2h-8Zm-16,0h8v-2h-8Zm16-94h8v-2h-8ZM-285-105h-2v8h2Zm0,16h-2v8h2Zm50-60h-8v2h8Zm-50,28h-2v8h2Zm92,66h-2v2h4v-4h-2Zm-92-2h-2v4h4v-2h-2Zm34-92h-8v2h8Zm16,94h-8v2h8Zm-52-90h2v-2h2v-2h-4Zm36,90h-8v2h8Zm-34-18h-2v8h2Zm92-56h2v-8h-2Zm0,64h2v-8h-2Zm-10,10h-8v2h8Zm0-94h-8v2h8Zm-64,0h-8v2h8Zm0,94h-8v2h8Zm74-58h2v-8h-2Zm-92-24h-2v8h2Zm92,56h2v-8h-2Zm-2-66h2v2h2v-4h-4Zm2,50h2v-8h-2Zm-26,42h-8v2h8Zm0-94h-8v2h8ZM2-137H0v8H2ZM20-55H12v2h8Zm48,0H60v2h8ZM0-145H2v-2H4v-2H0Zm20-4H12v2h8ZM2-57H0v4H4v-2H2Zm34-92H28v2h8Zm0,94H28v2h8ZM2-121H0v8H2Zm66-28H60v2h8ZM52-55H44v2h8Zm24,2h8v-2H76Zm18-60h2v-8H94Zm0,16h2v-8H94Zm0,16h2v-8H94Zm0,16h2v-8H94Zm0-64h2v-8H94Zm-2-18h2v2h2v-4H92Zm-40-2H44v2h8ZM94-55H92v2h4v-4H94ZM76-147h8v-2H76ZM2-89H0v8H2Zm0-16H0v8H2ZM2-73H0v8H2Zm144,0h-2v8h2Zm92-56h2v-8h-2Zm-2-18h2v2h2v-4h-4Zm-40-2h-8v2h8Zm16,94h-8v2h8Zm8,2h8v-2h-8Zm18-60h2v-8h-2Zm-94-32h2v-2h2v-2h-4Zm94,80h2v-8h-2ZM196-55h-8v2h8Zm42,0h-2v2h4v-4h-2Zm-92-2h-2v4h4v-2h-2Zm34-92h-8v2h8Zm58,68h2v-8h-2Zm0-16h2v-8h-2Zm-92,8h-2v8h2Zm0-16h-2v8h2Zm66-44h-8v2h8Zm-66,28h-2v8h2Zm0-16h-2v8h2Zm18-12h-8v2h8Zm16,94h-8v2h8Zm-24,2h8v-2h-8Zm64-94h8v-2h-8Zm87-2h-8v2h8Zm24,94v2h8v-2Zm50-58h2v-8h-2Zm0-16h2v-8h-2ZM291-55h-2v-2h-2v4h4Zm-2-82h-2v8h2Zm0-10h2v-2h-4v4h2Zm0,26h-2v8h2Zm18,66h-8v2h8ZM289-73h-2v8h2Zm0-32h-2v8h2Zm34-44h-8v2h8ZM289-89h-2v8h2Zm92-8h2v-8h-2Zm0,16h2v-8h-2Zm0,16h2v-8h-2ZM371-55h-8v2h8Zm10,0h-2v2h4v-4h-2Zm-10-94h-8v2h8Zm-32,0h-8v2h8Zm40,0v2h2v2h2v-4Zm-24,0h-8v2h8ZM-287,3h2V1h2V-1h-4Zm2,24h-2v8h2Zm0,64h-2v4h4V93h-2Zm92-40h2V43h-2Zm-92-40h-2v8h2Zm0,64h-2v8h2Zm0-16h-2v8h2Zm0-16h-2v8h2Zm92-8h2V27h-2Zm-34,60h8V93h-8Zm-8-96h-8V1h8Zm-16,0h-8V1h8Zm32,0h-8V1h8Zm26,94h-2v2h4V91h-2Zm0-26h2V59h-2Zm0,16h2V75h-2Zm-50,12h8V93h-8ZM-267-1h-8V1h8Zm8,96h8V93h-8Zm66-76h2V11h-2ZM-203-1h-8V1h8Zm8,2h2V3h2V-1h-4ZM-67,96h8V94h-8Zm8-96h-8V2h8ZM-75,94h-8v2h8Zm0-94h-8V2h8ZM-91,0h-8V2h8Zm42,94h-2v2h4V92h-2Zm0-74h2V12h-2Zm0,16h2V28h-2ZM-51,2h2V4h2V0h-4Zm2,50h2V44h-2Zm0,16h2V60h-2Zm0,16h2V76h-2ZM-123,0h-8V2h8Zm-18,60h-2v8h2Zm0-32h-2v8h2Zm34-28h-8V2h8Zm-34,44h-2v8h2Zm0,48h-2v4h4V94h-2Zm0-16h-2v8h2Zm-2-72h2V2h2V0h-4Zm12,92h8V94h-8Zm24-2h-8v2h8Zm-34-82h-2v8h2Zm50,82h-8v2h8ZM52,0H44V2h8ZM36,0H28V2h8ZM20,0H12V2h8ZM2,28H0v8H2ZM68,0H60V2h8ZM2,12H0v8H2ZM2,44H0v8H2ZM2,60H0v8H2ZM2,76H0v8H2ZM76,96h8V94H76ZM36,94H28v2h8ZM94,68h2V60H94ZM68,94H60v2h8ZM94,84h2V76H94ZM52,94H44v2h8ZM12,96h8V94H12ZM0,4H2V2H4V0H0ZM2,92H0v4H4V94H2Zm92,2H92v2h4V92H94ZM92,2h2V4h2V0H92Zm2,18h2V12H94ZM76,2h8V0H76ZM94,36h2V28H94Zm0,16h2V44H94Zm52,8h-2v8h2Zm34,34h-8v2h8ZM146,76h-2v8h2Zm10,20h8V94h-8Zm40-2h-8v2h8ZM144,4h2V2h2V0h-4Zm12-2h8V0h-8Zm32,0h8V0h-8Zm50,82h2V76h-2Zm0-16h2V60h-2Zm0,26h-2v2h4V92h-2Zm0-42h2V44h-2ZM236,2h2V4h2V0h-4Zm2,34h2V28h-2ZM204,2h8V0h-8Zm34,18h2V12h-2Zm-92-8h-2v8h2Zm0,80h-2v4h4V94h-2ZM220,2h8V0h-8ZM172,2h8V0h-8Zm48,94h8V94h-8ZM146,44h-2v8h2Zm66,50h-8v2h8ZM146,28h-2v8h2ZM-67,150h8v-2h-8Zm0,94h8v-2h-8Zm18-76h2v-8h-2Zm0,16h2v-8h-2Zm0,16h2v-8h-2Zm-2-50h2v2h2v-4h-4Zm2,82h2v-8h-2Zm0-16h2v-8h-2Zm0,26h-2v2h4v-4h-2Zm-94-90h2v-2h2v-2h-4Zm28,92h8v-2h-8Zm-26-84h-2v8h2Zm0,16h-2v8h2Zm42,68h8v-2h-8Zm-42-36h-2v8h2Zm0,16h-2v8h2Zm0-32h-2v8h2Zm10,52h8v-2h-8Zm48,0h8v-2h-8Zm-48-94h8v-2h-8Zm-10,90h-2v4h4v-2h-2Zm42-90h8v-2h-8Zm16,0h8v-2h-8Zm-32,0h8v-2h-8ZM0,152H2v-2H4v-2H0Zm60,92h8v-2H60Zm-32,0h8v-2H28Zm16,0h8v-2H44Zm50-28h2v-8H94ZM2,240H0v4H4v-2H2Zm92-40h2v-8H94ZM60,150h8v-2H60Zm-48,0h8v-2H12Zm0,94h8v-2H12Zm82-12h2v-8H94ZM44,150h8v-2H44Zm-16,0h8v-2H28ZM2,208H0v8H2Zm92-24h2v-8H94ZM2,176H0v8H2Zm0,16H0v8H2Zm74,52h8v-2H76Zm0-94h8v-2H76Zm18,92H92v2h4v-4H94ZM2,224H0v8H2Zm0-64H0v8H2Zm92,8h2v-8H94Zm-2-18h2v2h2v-4H92Zm146,35h2v-8h-2Zm-18,60h8v-2h-8Zm18-28h2v-8h-2Zm-18-66h8v-2h-8Zm18,18h2v-8h-2Zm0,64h2v-8h-2Zm0,10h-2v2h4v-4h-2Zm0-42h2v-8h-2Zm-2-50h2v2h2v-4h-4Zm-64,94h8v-2h-8Zm32,0h8v-2h-8Zm-16,0h8v-2h-8Zm-32-94h8v-2h-8Zm-10,90h-2v4h4v-2h-2Zm58-90h8v-2h-8Zm-48,94h8v-2h-8Zm-12-92h2v-2h2v-2h-4Zm2,8h-2v8h2Zm0,16h-2v8h2Zm42-26h8v-2h-8Zm-42,42h-2v8h2Zm0,32h-2v8h2Zm26-74h8v-2h-8Zm-26,58h-2v8h2ZM-107-55h-8v2h8Zm-34-66h-2v8h2Zm0-16h-2v8h2Zm50,82h-8v2h8Zm-50-50h-2v8h2Zm18,50h-8v2h8Zm0-94h-8v2h8Zm-18,92h-2v4h4v-2h-2Zm90-90h2v2h2v-4h-4Zm-90,74h-2v8h2Zm0-16h-2v8h2Zm-2-56h2v-2h2v-2h-4Zm36-4h-8v2h8Zm58,84h2v-8h-2Zm0,10h-2v2h4v-4h-2Zm-10-94h-8v2h8Zm10,68h2v-8h-2Zm0-16h2v-8h-2Zm0-16h2v-8h-2Zm-26-36h-8v2h8Zm26,20h2v-8h-2ZM-59-55h-8v2h8Zm-16,0h-8v2h8Zm-16-94h-8v2h8ZM-275,150h8v-2h-8Zm0,94h8v-2h-8Zm16,0h8v-2h-8Zm16,0h8v-2h-8Zm-16-94h8v-2h-8Zm-28,2h2v-2h2v-2h-4Zm2,40h-2v8h2Zm0,48h-2v4h4v-2h-2Zm0-64h-2v8h2Zm42-26h8v-2h-8Zm-42,10h-2v8h2Zm0,64h-2v8h2Zm58-74h8v-2h-8Zm0,94h8v-2h-8Zm34-76h2v-8h-2Zm0,32h2v-8h-2Zm-92,8h-2v8h2Zm90-58h2v2h2v-4h-4Zm2,34h2v-8h-2Zm-18-34h8v-2h-8Zm18,66h2v-8h-2Zm-18,28h8v-2h-8Zm18-12h2v-8h-2Zm0,10h-2v2h4v-4h-2Z"/><path class="cls-2" d="M-239-72c14,0,25-5.71,25-13a1,1,0,0,0-.12-.48l-24-44a1,1,0,0,0-1.76,0l-24,44A1,1,0,0,0-264-85C-264-77.71-253-72-239-72Zm0-54.95,23,42.19C-216.29-78.91-226.7-74-239-74s-22.71-4.9-23-10.76ZM-97,52.29a1,1,0,0,0-.12-.47l-15-28.29a1,1,0,0,0-1.77,0l-15,28.29a1,1,0,0,0-.12.47c0,4.89,7,8.71,16,8.71S-97,57.17-97,52.29Zm-30,.23,14-26.38,14,26.38C-99.3,56.06-105.6,59-113,59S-126.75,56.06-127,52.52Zm43-13a1,1,0,0,0-1.78,0l-8,15.71a1,1,0,0,0-.11.45c0,3,4,5.29,9,5.29s9-2.32,9-5.29a1,1,0,0,0-.11-.45ZM-84.95,59c-3.94,0-6.74-1.58-7-3.08l7-13.72,7,13.72C-78.21,57.42-81,59-84.95,59Zm19.83-11.47a1,1,0,0,0-1.77,0l-5,9.43a1,1,0,0,0-.12.47c0,2,2.58,3.57,6,3.57s6-1.54,6-3.57a1,1,0,0,0-.12-.47ZM-66,59c-2.19,0-3.71-.78-4-1.39l4-7.47,4,7.47C-62.29,58.22-63.81,59-66,59ZM44.6,78l-1.05-2L34.88,59.53a1,1,0,0,0-1.77,0L24.45,76,23.4,78l-.28.53A1,1,0,0,0,23,79c0,3.36,4.83,6,11,6s11-2.64,11-6a1,1,0,0,0-.12-.47ZM34,83c-5.1,0-8.72-2-9-3.78L25.66,78l1.05-2L34,62.15,41.29,76l1.05,2L43,79.22C42.72,81,39.1,83,34,83ZM180-83c5,0,9-2.32,9-5.29a1,1,0,0,0-.11-.45l-8-15.71a1,1,0,0,0-1.78,0l-8,15.71a1,1,0,0,0-.11.45C171-85.32,175-83,180-83Zm0-18.8,7,13.72c-.24,1.5-3,3.08-7,3.08s-6.74-1.58-7-3.08ZM-222,189.53a1,1,0,0,0-.12-.48l-13-23.57a1,1,0,0,0-1.75,0l-13,23.57a1,1,0,0,0-.12.48c0,4.17,6.15,7.43,14,7.43S-222,193.7-222,189.53ZM-236,195c-6.86,0-11.7-2.69-12-5.2L-236,168l12,21.73C-224.3,192.27-229.14,195-236,195Zm-24.12-12.48a1,1,0,0,0-1.75,0l-13,23.57a1,1,0,0,0-.12.48c0,4.17,6.15,7.43,14,7.43s14-3.26,14-7.43a1,1,0,0,0-.12-.48ZM-261,212c-6.86,0-11.7-2.69-12-5.2L-261,185l12,21.73C-249.3,209.27-254.14,212-261,212Zm43.88-17.48a1,1,0,0,0-1.75,0l-13,23.57a1,1,0,0,0-.12.48c0,4.17,6.15,7.43,14,7.43s14-3.26,14-7.43a1,1,0,0,0-.12-.48ZM-218,224c-6.86,0-11.7-2.69-12-5.2L-218,197l12,21.73C-206.3,221.27-211.14,224-218,224Zm-24.14-39c0,3.28,4.65,7,6.14,7s6.14-3.72,6.14-7a3.83,3.83,0,0,0-3.83-4h-.06a4.65,4.65,0,0,0-2.25.75,4.73,4.73,0,0,0-2.32-.75A3.83,3.83,0,0,0-242.14,185Zm6.84-1.26a2.62,2.62,0,0,1,1.64-.74,1.86,1.86,0,0,1,1.8,2c0,2-3.19,4.61-4.14,5-1-.37-4.14-2.94-4.14-5a1.85,1.85,0,0,1,1.77-2,2.6,2.6,0,0,1,1.67.74A1,1,0,0,0-235.3,183.7Zm570.55.3a11,11,0,0,0,0,22h0a11,11,0,0,0,0-22Zm0,20a9,9,0,1,1,9-9A9,9,0,0,1,335.25,204Zm0-15a4,4,0,0,0-4,4h2a2,2,0,0,1,4,0c0,.67-.5,1.05-1.3,1.62a3,3,0,0,0-1.7,2.38h2a2.75,2.75,0,0,1,.85-.74,3.82,3.82,0,0,0-1.85-7.26Zm0,9a1.5,1.5,0,1,0,1.5,1.5A1.5,1.5,0,0,0,335.25,198Zm5.16-144.29c-.64.23-1.29.43-1.95.6L348,72.09c-.27,3.77-7,6.91-15,6.91s-14.72-3.14-15-6.91l9.53-17.78c-.66-.17-1.31-.37-1.95-.6l-9.47,17.67a1,1,0,0,0-.12.47C316,77,323.47,81,333,81s17-4,17-9.14a1,1,0,0,0-.12-.47ZM-70.12-85.49l-24-44a1,1,0,0,0-1.76,0l-24,44A1,1,0,0,0-120-85c0,7.3,11,13,25,13s25-5.71,25-13A1,1,0,0,0-70.12-85.49ZM-95-74c-12.3,0-22.71-4.9-23-10.76l23-42.19,11.14,20.44a1,1,0,0,0-.12.29l-1.82,9.1L-92.88-98a1,1,0,0,0-1.06.64l-3,8a1,1,0,0,0,.58,1.29A1,1,0,0,0-96-88a1,1,0,0,0,.94-.65l2.72-7.27,7.22.9a1,1,0,0,0,1.1-.8l1.61-8L-72-84.76C-72.29-78.91-82.7-74-95-74ZM333.2,24h0a1,1,0,0,0-.87.5L321.23,43.8a16.11,16.11,0,0,0,1.48,1.44L333.18,27l10.14,18.18a16.09,16.09,0,0,0,1.48-1.44L334.07,24.51A1,1,0,0,0,333.2,24ZM-221,210v8a1,1,0,0,0,1,1h4a1,1,0,0,0,1-1,1,1,0,0,0-1-1h-3v-2h2a1,1,0,0,0,1-1,1,1,0,0,0-1-1h-2v-2h3a1,1,0,0,0,1-1,1,1,0,0,0-1-1h-4A1,1,0,0,0-221,210Zm-43-12a1,1,0,0,0,1,1h1v6h-1a1,1,0,0,0-1,1,1,1,0,0,0,1,1h4a1,1,0,0,0,1-1,1,1,0,0,0-1-1h-1v-6h1a1,1,0,0,0,1-1,1,1,0,0,0-1-1h-4A1,1,0,0,0-264,198ZM188.27,36l4.27-7.9,4.27,7.9h2.27l-5.67-10.48a1,1,0,0,0-1.76,0L186,36ZM335-92c10.65,0,19-4.39,19-10a1,1,0,0,0-.12-.48l-18-33a1,1,0,0,0-1.76,0l-18,33a1,1,0,0,0-.12.48C316-96.39,324.35-92,335-92Zm0-40.91,17,31.15C351.71-97.53,344-94,335-94s-16.71-3.53-17-7.76ZM-218.85,46.86l-7.27-13.34a1,1,0,0,0-1.76,0l-7.27,13.34-.62,1.14-4.1,7.52A1,1,0,0,0-240,56c0,3.92,5.71,7,13,7s13-3.08,13-7a1,1,0,0,0-.12-.48l-4.1-7.52ZM-227,61c-6.27,0-10.71-2.47-11-4.77l11-20.14,11,20.14C-216.29,58.53-220.73,61-227,61Z"/></svg>