<svg id="Illustrations" xmlns="http://www.w3.org/2000/svg" viewBox="0 0 96 96"><defs><style>.cls-1{fill:#ddd;}.cls-2{fill:#aaa;}</style></defs><title>2147_LISTING-QUALITY_r2v4c_MECH_OL.png</title><path class="cls-1" d="M41.92,201.61a1,1,0,0,0-1.31-.53l-8.94,3.83-2.36-1A3,3,0,0,0,30,202a3,3,0,1,0-3.27,3l2.4,1-2.4,1a3,3,0,1,0,2.57,1.07l2.36-1,8.94,3.83A1,1,0,0,0,41,211a1,1,0,0,0,.39-1.92L34.2,206l7.19-3.08A1,1,0,0,0,41.92,201.61ZM27,203a1,1,0,1,1,1-1A1,1,0,0,1,27,203Zm0,8a1,1,0,1,1,1-1A1,1,0,0,1,27,211Zm476-26H491v-8.49a11.5,11.5,0,1,0-23,0V185H456a1,1,0,0,0-1,1v42a1,1,0,0,0,1,1h47a1,1,0,0,0,1-1V186A1,1,0,0,0,503,185Zm-33-8.49a9.5,9.5,0,1,1,19,0V185H470ZM502,227H457V187h45Zm-36.58-19.08,3.59,2.55-1.42,4.32a1,1,0,0,0,.15.91,1,1,0,0,0,.83.4l4.28-.15,1.26,4.33a1,1,0,0,0,1.59.5l3.37-2.75,3.41,2.7a1,1,0,0,0,1.58-.52l1.2-4.35,4.28.08a1,1,0,0,0,.83-.41,1,1,0,0,0,.14-.91L489,210.31l3.55-2.61a1,1,0,0,0,0-1.62L489,203.53l1.42-4.32a1,1,0,0,0-.15-.91,1,1,0,0,0-.83-.4l-4.28.15-1.26-4.33a1,1,0,0,0-1.59-.5L478.92,196l-3.41-2.7a1,1,0,0,0-1.58.52l-1.2,4.35-4.28-.08a.92.92,0,0,0-.83.41,1,1,0,0,0-.14.91l1.48,4.29-3.55,2.61a1,1,0,0,0,0,1.62Zm5.32-3.05a1,1,0,0,0,.35-1.13l-1.26-3.64,3.63.07a1,1,0,0,0,1-.73l1-3.64,2.86,2.26a1,1,0,0,0,1.25,0l2.82-2.3,1.06,3.63a1,1,0,0,0,1,.72l3.63-.13-1.2,3.66a1,1,0,0,0,.37,1.13l3.06,2.17-3,2.22a1,1,0,0,0-.35,1.13l1.26,3.64-3.63-.07a1.06,1.06,0,0,0-1,.73l-1,3.64L479.69,216a1,1,0,0,0-1.25,0l-2.82,2.3-1.06-3.63a1,1,0,0,0-1-.72h0l-3.62.13,1.2-3.66a1,1,0,0,0-.37-1.13l-3.06-2.17Zm8.43,7.13c2.85,0,5-1.35,5-3.14a1,1,0,0,0-.11-.45l-4-7.86a1,1,0,0,0-1.78,0l-4,7.86a1,1,0,0,0-.11.45C474.17,210.65,476.32,212,479.17,212Zm0-8.8,3,5.8a4.86,4.86,0,0,1-5.9,0ZM231,218H153a1,1,0,0,0-1,1v15a1,1,0,0,0,1,1h78a1,1,0,0,0,1-1V219A1,1,0,0,0,231,218Zm-1,15H154V220h4v6a1,1,0,0,0,2,0v-6h4v9a1,1,0,0,0,2,0v-9h4v6a1,1,0,1,0,2,0v-6h4v9a1,1,0,1,0,2,0v-9h4v6a1,1,0,0,0,2,0v-6h4v9a1,1,0,0,0,2,0v-9h4v6a1,1,0,0,0,2,0v-6h4v9a1,1,0,0,0,2,0v-9h4v6a1,1,0,0,0,2,0v-6h4v9a1,1,0,0,0,2,0v-9h4v6a1,1,0,0,0,2,0v-6h4v9a1,1,0,0,0,2,0v-9h4Zm137-7V164a1,1,0,0,0-1-1H304a1,1,0,0,0-1,1v62a1,1,0,0,0,1,1h6.4l1.05-2H305V197h29v28h-3.45l1.05,2H339v5a1,1,0,0,0,1,1h19a1,1,0,0,0,1-1v-5h6A1,1,0,0,0,367,226Zm-62-61h23.93A26.3,26.3,0,0,1,305,188.93Zm29,30H305v-4.07A28.28,28.28,0,0,0,330.93,165H334Zm24,36H341V217h17Zm7-6h-5v-9a1,1,0,0,0-1-1h-8v-3.35l5.65-4.89a1,1,0,0,0-1.31-1.51L351,209v-7a1,1,0,0,0-2,0v7l-4.35-3.73a1,1,0,1,0-1.3,1.52L349,211.6V215h-9a1,1,0,0,0-1,1v9h-3V197h29Zm0-30H336V165h3.07A28.28,28.28,0,0,0,365,190.93Zm0-6.07A26.3,26.3,0,0,1,341.07,165H365ZM480,56V71a1,1,0,0,0,1,1h15a1,1,0,0,0,1-1V56a1,1,0,0,0-1-1H481A1,1,0,0,0,480,56Zm2,1h13V70H482Zm0-5a9,9,0,1,0-9-9A9,9,0,0,0,482,52Zm0-16a7,7,0,1,1-7,7A7,7,0,0,1,482,36Zm-3,49a30,30,0,0,0,9-58.62V25.13a13,13,0,0,0,16.71-1.42,1,1,0,1,0-1.41-1.41,11,11,0,0,1-15.58,0A1,1,0,0,0,487,22h-.12l5.89-7.16a1,1,0,0,0-.18-1.44l-3-2.2a1,1,0,0,0-1-.12L484,12.92l-4.63-1.85a1,1,0,0,0-.74,0L474,12.9l-3.6-1.8a1,1,0,0,0-.89,0l-4,2a1,1,0,0,0-.33,1.53l6,7.37H471a1,1,0,0,0-1,1v3.38A30,30,0,0,0,479,85ZM467.56,14.34,470,13.12l3.55,1.78a1,1,0,0,0,.82,0L479,13.08l4.63,1.85a1,1,0,0,0,.74,0l4.48-1.79,1.7,1.25L484.29,22h-10.5ZM486,24v2H472V24Zm-14.4,4h14.8a28,28,0,1,1-14.8,0ZM587,319v51a1,1,0,0,0,1,1h68a1,1,0,0,0,1-1V319a1,1,0,0,0-1-1H588A1,1,0,0,0,587,319Zm2,1h66v49H589Zm71.69-104.73-18-17a1,1,0,0,0-1.39,0l-1.79,1.79-4.69-4.69a20.08,20.08,0,1,0-1.41,1.41l4.69,4.69-1.79,1.79a1,1,0,0,0,0,1.43l18,17a1,1,0,0,0,1.39,0l5-5a1,1,0,0,0,0-1.43ZM620,200a18,18,0,1,1,18-18A18,18,0,0,1,620,200Zm35,19.61L638.43,204l3.58-3.58L658.57,216ZM614.59,71.06a4.42,4.42,0,0,0,3.1-1.34,1,1,0,0,0-1.38-1.45,2.53,2.53,0,0,1-3.63,0,1,1,0,0,0-1.37,1.45A5,5,0,0,0,614.59,71.06Zm11.69,4.25a6.25,6.25,0,0,1-8.55,0,1,1,0,0,0-1.45,1.38A8.12,8.12,0,0,0,622,79a8.22,8.22,0,0,0,5.72-2.31,1,1,0,1,0-1.45-1.38Zm3.31-4.25a4.42,4.42,0,0,0,3.1-1.34,1,1,0,0,0-1.38-1.45,2.53,2.53,0,0,1-3.63,0,1,1,0,0,0-1.37,1.45A5,5,0,0,0,629.59,71.06ZM610.92,86.4a24.22,24.22,0,0,0-9.74,8,1,1,0,0,0,.24,1.39A1,1,0,0,0,602,96v0h8V94h-5.94a22.65,22.65,0,0,1,9.43-6.5,25,25,0,0,0,17,0,22.65,22.65,0,0,1,9.43,6.5H634v2h8a1,1,0,0,0,.82-1.58,24.22,24.22,0,0,0-9.74-8,25,25,0,0,0,7.86-38.7,6.07,6.07,0,0,1-.75,2.24,23,23,0,1,1-36.38,0,6.07,6.07,0,0,1-.75-2.24,25,25,0,0,0,7.86,38.7Zm-522,132.23,0-.07a1,1,0,0,0-.07-.13l-16-23A1,1,0,0,0,72,195H67.68l1.09,2h2.7l14.61,21H9.85l13.7-21H51.22l1.09-2H23a1,1,0,0,0-.84.45l-15,23a1,1,0,0,0-.05.11l0,.08A1,1,0,0,0,7,219v25H9V220h6v22H12v2h8v-2H17V228H79v14H76v2h8v-2H81V220h6v24h2V219A1,1,0,0,0,88.93,218.64ZM79,226H17v-6H79ZM668,381h2v-8h-2Zm-92-8h-2v8h2Zm0-48h-2v8h2Zm0,16h-2v8h2Zm0,16h-2v8h2Zm92,8h2v-8h-2Zm-50,28h8v-2h-8Zm50-60h2v-8h-2Zm-82,60h8v-2h-8Zm16,0h8v-2h-8Zm-26-84h-2v8h2Zm-2-8h2v-2h2v-2h-4Zm94,16h2v-8h-2Zm-2-18h2v2h2v-4h-4Zm-90,90h-2v4h4v-2h-2Zm92-40h2v-8h-2Zm-74-52h-8v2h8Zm8,2h8v-2h-8Zm24,0v-2h-8v2Zm42,92h-2v2h4v-4h-2Zm-34-92h8v-2h-8Zm16,94h8v-2h-8Zm-16,0h8v-2h-8Zm16-94h8v-2h-8ZM2,44H0v8H2ZM2,60H0v8H2ZM52,0H44V2h8ZM2,28H0v8H2ZM94,94H92v2h4V92H94ZM2,92H0v4H4V94H2ZM36,0H28V2h8ZM52,94H44v2h8ZM0,4H2V2H4V0H0ZM36,94H28v2h8ZM2,76H0v8H2ZM94,20h2V12H94Zm0,64h2V76H94ZM84,94H76v2h8ZM84,0H76V2h8ZM20,0H12V2h8Zm0,94H12v2h8ZM94,36h2V28H94ZM2,12H0v8H2ZM94,68h2V60H94ZM92,2h2V4h2V0H92Zm2,50h2V44H94ZM68,94H60v2h8ZM68,0H60V2h8ZM289,12h-2v8h2Zm18,82h-8v2h8Zm48,0h-8v2h8ZM287,4h2V2h2V0h-4Zm20-4h-8V2h8ZM289,92h-2v4h4V94h-2ZM323,0h-8V2h8Zm0,94h-8v2h8ZM289,28h-2v8h2ZM355,0h-8V2h8ZM339,94h-8v2h8Zm24,2h8V94h-8Zm18-60h2V28h-2Zm0,16h2V44h-2Zm0,16h2V60h-2Zm0,16h2V76h-2Zm0-64h2V12h-2ZM379,2h2V4h2V0h-4ZM339,0h-8V2h8Zm42,94h-2v2h4V92h-2ZM363,2h8V0h-8ZM289,60h-2v8h2Zm0-16h-2v8h2Zm0,32h-2v8h2Zm144,0h-2v8h2Zm92-56h2V12h-2ZM523,2h2V4h2V0h-4ZM483,0h-8V2h8Zm16,94h-8v2h8Zm8,2h8V94h-8Zm18-60h2V28h-2ZM431,4h2V2h2V0h-4Zm94,80h2V76h-2ZM483,94h-8v2h8Zm42,0h-2v2h4V92h-2Zm-92-2h-2v4h4V94h-2ZM467,0h-8V2h8Zm58,68h2V60h-2Zm0-16h2V44h-2Zm-92,8h-2v8h2Zm0-16h-2v8h2ZM499,0h-8V2h8ZM433,28h-2v8h2Zm0-16h-2v8h2ZM451,0h-8V2h8Zm16,94h-8v2h8Zm-24,2h8V94h-8ZM507,2h8V0h-8Zm87-2h-8V2h8Zm24,94v2h8V94Zm50-58h2V28h-2Zm0-16h2V12h-2ZM578,94h-2V92h-2v4h4Zm-2-82h-2v8h2Zm0-10h2V0h-4V4h2Zm0,26h-2v8h2Zm18,66h-8v2h8ZM576,76h-2v8h2Zm0-32h-2v8h2ZM610,0h-8V2h8ZM576,60h-2v8h2Zm92-8h2V44h-2Zm0,16h2V60h-2Zm0,16h2V76h-2ZM658,94h-8v2h8Zm10,0h-2v2h4V92h-2ZM658,0h-8V2h8ZM626,0h-8V2h8Zm40,0V2h2V4h2V0ZM642,0h-8V2h8ZM0,152H2v-2H4v-2H0Zm2,24H0v8H2Zm0,64H0v4H4v-2H2Zm92-40h2v-8H94ZM2,160H0v8H2Zm0,64H0v8H2Zm0-16H0v8H2Zm0-16H0v8H2Zm92-8h2v-8H94ZM60,244h8v-2H60Zm-8-96H44v2h8Zm-16,0H28v2h8Zm32,0H60v2h8Zm26,94H92v2h4v-4H94Zm0-26h2v-8H94Zm0,16h2v-8H94ZM44,244h8v-2H44ZM20,148H12v2h8Zm8,96h8v-2H28Zm66-76h2v-8H94ZM84,148H76v2h8Zm8,2h2v2h2v-4H92Zm128,95h8v-2h-8Zm8-96h-8v2h8Zm-16,94h-8v2h8Zm0-94h-8v2h8Zm-16,0h-8v2h8Zm42,94h-2v2h4v-4h-2Zm0-74h2v-8h-2Zm0,16h2v-8h-2Zm-2-34h2v2h2v-4h-4Zm2,50h2v-8h-2Zm0,16h2v-8h-2Zm0,16h2v-8h-2Zm-74-84h-8v2h8Zm-18,60h-2v8h2Zm0-32h-2v8h2Zm34-28h-8v2h8Zm-34,44h-2v8h2Zm0,48h-2v4h4v-2h-2Zm0-16h-2v8h2Zm-2-72h2v-2h2v-2h-4Zm12,92h8v-2h-8Zm24-2h-8v2h8Zm-34-82h-2v8h2Zm50,82h-8v2h8Zm143-94h-8v2h8Zm-16,0h-8v2h8Zm-16,0h-8v2h8Zm-18,28h-2v8h2Zm66-28h-8v2h8Zm-66,12h-2v8h2Zm0,32h-2v8h2Zm0,16h-2v8h2Zm0,16h-2v8h2Zm74,20h8v-2h-8Zm-40-2h-8v2h8Zm58-26h2v-8h-2Zm-26,26h-8v2h8Zm26-10h2v-8h-2Zm-42,10h-8v2h8Zm-40,2h8v-2h-8Zm-12-92h2v-2h2v-2h-4Zm2,88h-2v4h4v-2h-2Zm92,2h-2v2h4v-4h-2Zm-2-92h2v2h2v-4h-4Zm2,18h2v-8h-2Zm-18-18h8v-2h-8Zm18,34h2v-8h-2Zm0,16h2v-8h-2Zm52,8h-2v8h2Zm34,34h-8v2h8Zm-34-18h-2v8h2Zm10,20h8v-2h-8Zm40-2h-8v2h8Zm-52-90h2v-2h2v-2h-4Zm12-2h8v-2h-8Zm32,0h8v-2h-8Zm50,82h2v-8h-2Zm0-16h2v-8h-2Zm0,26h-2v2h4v-4h-2Zm0-42h2v-8h-2Zm-2-50h2v2h2v-4h-4Zm2,34h2v-8h-2Zm-34-34h8v-2h-8Zm34,18h2v-8h-2Zm-92-8h-2v8h2Zm0,80h-2v4h4v-2h-2Zm74-90h8v-2h-8Zm-48,0h8v-2h-8Zm48,94h8v-2h-8Zm-74-52h-2v8h2Zm66,50h-8v2h8Zm-66-66h-2v8h2ZM220,299h8v-2h-8Zm0,94h8v-2h-8Zm18-76h2v-8h-2Zm0,16h2v-8h-2Zm0,16h2v-8h-2Zm-2-50h2v2h2v-4h-4Zm2,82h2v-8h-2Zm0-16h2v-8h-2Zm0,26h-2v2h4v-4h-2Zm-94-90h2v-2h2v-2h-4Zm28,92h8v-2h-8Zm-26-84h-2v8h2Zm0,16h-2v8h2Zm42,68h8v-2h-8Zm-42-36h-2v8h2Zm0,16h-2v8h2Zm0-32h-2v8h2Zm10,52h8v-2h-8Zm48,0h8v-2h-8Zm-48-94h8v-2h-8Zm-10,90h-2v4h4v-2h-2Zm42-90h8v-2h-8Zm16,0h8v-2h-8Zm-32,0h8v-2h-8Zm115,2h2v-2h2v-2h-4Zm60,92h8v-2h-8Zm-32,0h8v-2h-8Zm16,0h8v-2h-8Zm50-28h2v-8h-2Zm-92,24h-2v4h4v-2h-2Zm92-40h2v-8h-2Zm-34-50h8v-2h-8Zm-48,0h8v-2h-8Zm0,94h8v-2h-8Zm82-12h2v-8h-2Zm-50-82h8v-2h-8Zm-16,0h8v-2h-8Zm-26,58h-2v8h2Zm92-24h2v-8h-2Zm-92-8h-2v8h2Zm0,16h-2v8h2Zm74,52h8v-2h-8Zm0-94h8v-2h-8Zm18,92h-2v2h4v-4h-2Zm-92-18h-2v8h2Zm0-64h-2v8h2Zm92,8h2v-8h-2Zm-2-18h2v2h2v-4h-4Zm146,35h2v-8h-2Zm-18,60h8v-2h-8Zm18-28h2v-8h-2Zm-18-66h8v-2h-8Zm18,18h2v-8h-2Zm0,64h2v-8h-2Zm0,10h-2v2h4v-4h-2Zm0-42h2v-8h-2Zm-2-50h2v2h2v-4h-4Zm-64,94h8v-2h-8Zm32,0h8v-2h-8Zm-16,0h8v-2h-8Zm-32-94h8v-2h-8Zm-10,90h-2v4h4v-2h-2Zm58-90h8v-2h-8Zm-48,94h8v-2h-8Zm-12-92h2v-2h2v-2h-4Zm2,8h-2v8h2Zm0,16h-2v8h2Zm42-26h8v-2h-8Zm-42,42h-2v8h2Zm0,32h-2v8h2Zm26-74h8v-2h-8Zm-26,58h-2v8h2ZM180,94h-8v2h8ZM146,28h-2v8h2Zm0-16h-2v8h2Zm50,82h-8v2h8ZM146,44h-2v8h2Zm18,50h-8v2h8Zm0-94h-8V2h8ZM146,92h-2v4h4V94h-2ZM236,2h2V4h2V0h-4ZM146,76h-2v8h2Zm0-16h-2v8h2ZM144,4h2V2h2V0h-4Zm36-4h-8V2h8Zm58,84h2V76h-2Zm0,10h-2v2h4V92h-2ZM228,0h-8V2h8Zm10,68h2V60h-2Zm0-16h2V44h-2Zm0-16h2V28h-2ZM212,0h-8V2h8Zm26,20h2V12h-2ZM228,94h-8v2h8Zm-16,0h-8v2h8ZM196,0h-8V2h8ZM12,299h8v-2H12Zm0,94h8v-2H12Zm16,0h8v-2H28Zm16,0h8v-2H44ZM28,299h8v-2H28ZM0,301H2v-2H4v-2H0Zm2,40H0v8H2Zm0,48H0v4H4v-2H2Zm0-64H0v8H2Zm42-26h8v-2H44ZM2,309H0v8H2Zm0,64H0v8H2Zm58-74h8v-2H60Zm0,94h8v-2H60Zm34-76h2v-8H94Zm0,32h2v-8H94ZM2,357H0v8H2Zm90-58h2v2h2v-4H92Zm2,34h2v-8H94ZM76,299h8v-2H76Zm18,66h2v-8H94ZM76,393h8v-2H76Zm18-12h2v-8H94Zm0,10H92v2h4v-4H94Z"/><path class="cls-2" d="M48,77c14,0,25-5.71,25-13a1,1,0,0,0-.12-.48l-24-44a1,1,0,0,0-1.76,0l-24,44A1,1,0,0,0,23,64C23,71.29,34,77,48,77Zm0-54.95L71,64.24C70.71,70.09,60.3,75,48,75s-22.71-4.9-23-10.76ZM190,201.29a1,1,0,0,0-.12-.47l-15-28.29a1,1,0,0,0-1.77,0l-15,28.29a1,1,0,0,0-.12.47c0,4.89,7,8.71,16,8.71S190,206.17,190,201.29Zm-30,.23,14-26.38,14,26.38c-.27,3.54-6.56,6.48-14,6.48S160.25,205.06,160,201.52Zm43-13a1,1,0,0,0-1.78,0l-8,15.71a1,1,0,0,0-.11.45c0,3,4,5.29,9,5.29s9-2.32,9-5.29a1,1,0,0,0-.11-.45ZM202.05,208c-3.94,0-6.74-1.58-7-3.08l7-13.72,7,13.72C208.79,206.42,206,208,202.05,208Zm19.83-11.47a1,1,0,0,0-1.77,0l-5,9.43a1,1,0,0,0-.12.47c0,2,2.58,3.57,6,3.57s6-1.54,6-3.57a1,1,0,0,0-.12-.47ZM221,208c-2.19,0-3.71-.78-4-1.39l4-7.47,4,7.47C224.71,207.22,223.19,208,221,208Zm110.6,19-1.05-2-8.67-16.47a1,1,0,0,0-1.77,0L311.45,225l-1.05,2-.28.53a1,1,0,0,0-.12.47c0,3.36,4.83,6,11,6s11-2.64,11-6a1,1,0,0,0-.12-.47ZM321,232c-5.1,0-8.72-2-9-3.78l.64-1.22,1.05-2L321,211.15,328.29,225l1.05,2,.64,1.22C329.72,230,326.1,232,321,232ZM467,66c5,0,9-2.32,9-5.29a1,1,0,0,0-.11-.45l-8-15.71a1,1,0,0,0-1.78,0l-8,15.71a1,1,0,0,0-.11.45C458,63.68,462,66,467,66Zm0-18.8,7,13.72c-.24,1.5-3,3.08-7,3.08s-6.74-1.58-7-3.08ZM65,338.53a1,1,0,0,0-.12-.48l-13-23.57a1,1,0,0,0-1.75,0L37.12,338a1,1,0,0,0-.12.48c0,4.17,6.15,7.43,14,7.43S65,342.7,65,338.53ZM51,344c-6.86,0-11.7-2.69-12-5.2L51,317l12,21.73C62.7,341.27,57.86,344,51,344ZM26.88,331.48a1,1,0,0,0-1.75,0L12.12,355a1,1,0,0,0-.12.48c0,4.17,6.15,7.43,14,7.43s14-3.26,14-7.43a1,1,0,0,0-.12-.48ZM26,361c-6.86,0-11.7-2.69-12-5.2L26,334l12,21.73C37.7,358.27,32.86,361,26,361Zm43.88-17.48a1,1,0,0,0-1.75,0L55.12,367a1,1,0,0,0-.12.48c0,4.17,6.15,7.43,14,7.43s14-3.26,14-7.43a1,1,0,0,0-.12-.48ZM69,373c-6.86,0-11.7-2.69-12-5.2L69,346l12,21.73C80.7,370.27,75.86,373,69,373ZM44.86,334c0,3.28,4.65,7,6.14,7s6.14-3.72,6.14-7a3.83,3.83,0,0,0-3.83-4h-.06a4.65,4.65,0,0,0-2.25.75,4.73,4.73,0,0,0-2.32-.75A3.83,3.83,0,0,0,44.86,334Zm6.84-1.26a2.62,2.62,0,0,1,1.64-.74,1.86,1.86,0,0,1,1.8,2c0,2-3.19,4.61-4.14,5-1-.37-4.14-2.94-4.14-5a1.85,1.85,0,0,1,1.77-2,2.6,2.6,0,0,1,1.67.74A1,1,0,0,0,51.7,332.7Zm570.55.3a11,11,0,0,0,0,22h0a11,11,0,0,0,0-22Zm0,20a9,9,0,1,1,9-9A9,9,0,0,1,622.25,353Zm0-15a4,4,0,0,0-4,4h2a2,2,0,0,1,4,0c0,.67-.5,1.05-1.3,1.62a3,3,0,0,0-1.7,2.38h2a2.75,2.75,0,0,1,.85-.74,3.82,3.82,0,0,0-1.85-7.26Zm0,9a1.5,1.5,0,1,0,1.5,1.5A1.5,1.5,0,0,0,622.25,347Zm5.16-144.29c-.64.23-1.29.43-1.95.6L635,221.09c-.27,3.77-7,6.91-15,6.91s-14.72-3.14-15-6.91l9.53-17.78c-.66-.17-1.31-.37-1.95-.6l-9.47,17.67a1,1,0,0,0-.12.47c0,5.13,7.47,9.14,17,9.14s17-4,17-9.14a1,1,0,0,0-.12-.47ZM216.88,63.51l-24-44a1,1,0,0,0-1.76,0l-24,44A1,1,0,0,0,167,64c0,7.3,11,13,25,13s25-5.71,25-13A1,1,0,0,0,216.88,63.51ZM192,75c-12.3,0-22.71-4.9-23-10.76l23-42.19,11.14,20.44a1,1,0,0,0-.12.29l-1.82,9.1L194.12,51a1,1,0,0,0-1.06.64l-3,8a1,1,0,1,0,1.87.7l2.72-7.27,7.22.9a1,1,0,0,0,1.1-.8l1.61-8L215,64.24C214.71,70.09,204.3,75,192,75Zm428.2,98h0a1,1,0,0,0-.87.5l-11.1,19.29a16.11,16.11,0,0,0,1.48,1.44L620.18,176l10.14,18.18a16.09,16.09,0,0,0,1.48-1.44l-10.73-19.25A1,1,0,0,0,620.2,173ZM66,359v8a1,1,0,0,0,1,1h4a1,1,0,0,0,0-2H68v-2h2a1,1,0,0,0,0-2H68v-2h3a1,1,0,0,0,0-2H67A1,1,0,0,0,66,359ZM23,347a1,1,0,0,0,1,1h1v6H24a1,1,0,0,0,0,2h4a1,1,0,0,0,0-2H27v-6h1a1,1,0,0,0,0-2H24A1,1,0,0,0,23,347ZM475.27,185l4.27-7.9,4.27,7.9h2.27l-5.67-10.48a1,1,0,0,0-1.76,0L473,185ZM622,57c10.65,0,19-4.39,19-10a1,1,0,0,0-.12-.48l-18-33a1,1,0,0,0-1.76,0l-18,33A1,1,0,0,0,603,47C603,52.61,611.35,57,622,57Zm0-40.91,17,31.15C638.71,51.47,631,55,622,55s-16.71-3.53-17-7.76ZM68.15,195.86l-7.27-13.34a1,1,0,0,0-1.76,0l-7.27,13.34L51.22,197l-4.1,7.52A1,1,0,0,0,47,205c0,3.92,5.71,7,13,7s13-3.08,13-7a1,1,0,0,0-.12-.48L68.78,197ZM60,210c-6.27,0-10.71-2.47-11-4.77l11-20.14,11,20.14C70.71,207.53,66.27,210,60,210Z"/></svg>