<svg id="Illustrations" xmlns="http://www.w3.org/2000/svg" viewBox="0 0 96 96"><defs><style>.cls-1{fill:#ddd;}.cls-2{fill:#aaa;}</style></defs><title>2147_LISTING-QUALITY_r2v4c_MECH_OL.png</title><path class="cls-1" d="M-102.08,52.61a1,1,0,0,0-1.31-.53l-8.94,3.83-2.36-1A3,3,0,0,0-114,53a3,3,0,0,0-3-3,3,3,0,0,0-3,3,3,3,0,0,0,2.73,3l2.4,1-2.4,1A3,3,0,0,0-120,61a3,3,0,0,0,3,3,3,3,0,0,0,3-3,3,3,0,0,0-.7-1.9l2.36-1,8.94,3.83A1,1,0,0,0-103,62a1,1,0,0,0,.92-.61,1,1,0,0,0-.53-1.31L-109.8,57l7.19-3.08A1,1,0,0,0-102.08,52.61ZM-117,54a1,1,0,0,1-1-1,1,1,0,0,1,1-1,1,1,0,0,1,1,1A1,1,0,0,1-117,54Zm0,8a1,1,0,0,1-1-1,1,1,0,0,1,1-1,1,1,0,0,1,1,1A1,1,0,0,1-117,62ZM359,36H347V27.51a11.5,11.5,0,1,0-23,0V36H312a1,1,0,0,0-1,1V79a1,1,0,0,0,1,1h47a1,1,0,0,0,1-1V37A1,1,0,0,0,359,36Zm-33-8.49a9.5,9.5,0,1,1,19,0V36H326ZM358,78H313V38h45ZM321.42,58.92,325,61.47l-1.42,4.32a1,1,0,0,0,.15.91,1,1,0,0,0,.83.4l4.28-.15,1.26,4.33a1,1,0,0,0,1.59.5L335.08,69l3.41,2.7a1,1,0,0,0,1.58-.52l1.2-4.35,4.28.08a1,1,0,0,0,.83-.41,1,1,0,0,0,.14-.91L345,61.31l3.55-2.61a1,1,0,0,0,0-1.62L345,54.53l1.42-4.32a1,1,0,0,0-.15-.91,1,1,0,0,0-.83-.4l-4.28.15-1.26-4.33a1,1,0,0,0-1.59-.5L334.92,47l-3.41-2.7a1,1,0,0,0-1.58.52l-1.2,4.35-4.28-.08a.92.92,0,0,0-.83.41,1,1,0,0,0-.14.91L325,54.69l-3.55,2.61a1,1,0,0,0,0,1.62Zm5.32-3.05a1,1,0,0,0,.35-1.13l-1.26-3.64,3.63.07a1,1,0,0,0,1-.73l1-3.64L334.31,49a1,1,0,0,0,1.25,0l2.82-2.3,1.06,3.63a1,1,0,0,0,1,.72l3.63-.13-1.2,3.66a1,1,0,0,0,.37,1.13l3.06,2.17-3,2.22a1,1,0,0,0-.35,1.13l1.26,3.64-3.63-.07a1.06,1.06,0,0,0-1,.73l-1,3.64L335.69,67a1,1,0,0,0-1.25,0l-2.82,2.3-1.06-3.63a1,1,0,0,0-1-.72h0l-3.62.13,1.2-3.66a1,1,0,0,0-.37-1.13l-3.06-2.17ZM335.17,63c2.85,0,5-1.35,5-3.14a1,1,0,0,0-.11-.45l-4-7.86a1,1,0,0,0-1.78,0l-4,7.86a1,1,0,0,0-.11.45C330.17,61.65,332.32,63,335.17,63Zm0-8.8,3,5.8a4.86,4.86,0,0,1-5.9,0ZM87,69H9a1,1,0,0,0-1,1V85a1,1,0,0,0,1,1H87a1,1,0,0,0,1-1V70A1,1,0,0,0,87,69ZM86,84H10V71h4v6a1,1,0,0,0,2,0V71h4v9a1,1,0,0,0,2,0V71h4v6a1,1,0,0,0,2,0V71h4v9a1,1,0,0,0,2,0V71h4v6a1,1,0,0,0,2,0V71h4v9a1,1,0,0,0,2,0V71h4v6a1,1,0,0,0,2,0V71h4v9a1,1,0,0,0,2,0V71h4v6a1,1,0,0,0,2,0V71h4v9a1,1,0,0,0,2,0V71h4v6a1,1,0,0,0,2,0V71h4v9a1,1,0,0,0,2,0V71h4Zm137-7V15a1,1,0,0,0-1-1H160a1,1,0,0,0-1,1V77a1,1,0,0,0,1,1h6.4l1.05-2H161V48h29V76h-3.45l1.05,2H195v5a1,1,0,0,0,1,1h19a1,1,0,0,0,1-1V78h6A1,1,0,0,0,223,77ZM161,16h23.93A26.3,26.3,0,0,1,161,39.93Zm29,30H161V41.93A28.28,28.28,0,0,0,186.93,16H190Zm24,36H197V68h17Zm7-6h-5V67a1,1,0,0,0-1-1h-8V62.65l5.65-4.89a1,1,0,1,0-1.31-1.51L207,60V53a1,1,0,0,0-2,0v7l-4.35-3.73a1,1,0,1,0-1.3,1.52L205,62.6V66h-9a1,1,0,0,0-1,1v9h-3V48h29Zm0-30H192V16h3.07A28.28,28.28,0,0,0,221,41.93Zm0-6.07A26.3,26.3,0,0,1,197.07,16H221ZM336-93v15a1,1,0,0,0,1,1h15a1,1,0,0,0,1-1V-93a1,1,0,0,0-1-1H337A1,1,0,0,0,336-93Zm2,1h13v13H338Zm0-5a9,9,0,0,0,9-9,9,9,0,0,0-9-9,9,9,0,0,0-9,9A9,9,0,0,0,338-97Zm0-16a7,7,0,0,1,7,7,7,7,0,0,1-7,7,7,7,0,0,1-7-7A7,7,0,0,1,338-113Zm-3,49a30,30,0,0,0,30-30,30.05,30.05,0,0,0-21-28.62v-1.25a13,13,0,0,0,7.5,2.39,13,13,0,0,0,9.21-3.81,1,1,0,0,0,0-1.41,1,1,0,0,0-1.41,0,11,11,0,0,1-15.58,0,1,1,0,0,0-.33-.22A1,1,0,0,0,343-127h-.12l5.89-7.16a1,1,0,0,0,.22-.76,1,1,0,0,0-.4-.68l-3-2.2a1,1,0,0,0-1-.12L340-136.08l-4.63-1.85a1,1,0,0,0-.74,0L330-136.1l-3.6-1.8a1,1,0,0,0-.89,0l-4,2a1,1,0,0,0-.53.68,1,1,0,0,0,.2.84l6,7.37H327a1,1,0,0,0-1,1v3.38A30.05,30.05,0,0,0,305-94,30,30,0,0,0,335-64Zm-11.44-70.66,2.44-1.22,3.55,1.78a1,1,0,0,0,.82,0l4.63-1.85,4.63,1.85a1,1,0,0,0,.74,0l4.48-1.79,1.7,1.25L340.29-127h-10.5ZM342-125v2H328v-2Zm-14.4,4h14.8A28,28,0,0,1,363-94a28,28,0,0,1-28,28,28,28,0,0,1-28-28A28,28,0,0,1,327.6-121ZM443,170v51a1,1,0,0,0,1,1h68a1,1,0,0,0,1-1V170a1,1,0,0,0-1-1H444A1,1,0,0,0,443,170Zm2,1h66v49H445ZM516.69,66.27l-18-17a1,1,0,0,0-1.39,0l-1.79,1.79-4.69-4.69a20.08,20.08,0,1,0-1.41,1.41l4.69,4.69-1.79,1.79a1,1,0,0,0,0,1.43l18,17a1,1,0,0,0,1.39,0l5-5a1,1,0,0,0,0-1.43ZM476,51a18,18,0,1,1,18-18A18,18,0,0,1,476,51Zm35,19.61L494.43,55,498,51.39,514.57,67ZM470.59-77.94a4.42,4.42,0,0,0,3.1-1.34,1,1,0,0,0,0-1.41,1,1,0,0,0-1.41,0,2.53,2.53,0,0,1-3.63,0,1,1,0,0,0-1.41,0,1,1,0,0,0,0,1.41A5,5,0,0,0,470.59-77.94Zm11.69,4.25A6.23,6.23,0,0,1,478-72a6.23,6.23,0,0,1-4.28-1.69,1,1,0,0,0-1.41,0,1,1,0,0,0,0,1.41A8.12,8.12,0,0,0,478-70a8.22,8.22,0,0,0,5.72-2.31,1,1,0,0,0,0-1.41A1,1,0,0,0,483-74,1,1,0,0,0,482.28-73.69Zm3.31-4.25a4.42,4.42,0,0,0,3.1-1.34,1,1,0,0,0,0-1.41,1,1,0,0,0-1.41,0,2.53,2.53,0,0,1-3.63,0,1,1,0,0,0-1.41,0,1,1,0,0,0,0,1.41A5,5,0,0,0,485.59-77.94ZM466.92-62.6a24.22,24.22,0,0,0-9.74,8,1,1,0,0,0,.24,1.39A1,1,0,0,0,458-53v0h8v-2h-5.94a22.65,22.65,0,0,1,9.43-6.5A24.88,24.88,0,0,0,478-60a24.88,24.88,0,0,0,8.52-1.5,22.65,22.65,0,0,1,9.43,6.5H490v2h8a1,1,0,0,0,.58-.18,1,1,0,0,0,.24-1.39,24.22,24.22,0,0,0-9.74-8A25,25,0,0,0,503-85a24.88,24.88,0,0,0-6.07-16.3,6.07,6.07,0,0,1-.75,2.24A22.88,22.88,0,0,1,501-85a23,23,0,0,1-14.53,21.38,22.77,22.77,0,0,1-3.62,1.11A23,23,0,0,1,478-62a23,23,0,0,1-4.85-.52,22.77,22.77,0,0,1-3.62-1.11A23,23,0,0,1,455-85a22.88,22.88,0,0,1,4.81-14.05,6.07,6.07,0,0,1-.75-2.24A24.88,24.88,0,0,0,453-85,25,25,0,0,0,466.92-62.6Zm-522,132.23,0-.07a1,1,0,0,0-.07-.13l-16-23A1,1,0,0,0-72,46h-4.32l1.09,2h2.7l14.61,21h-76.24l13.7-21h27.68l1.09-2H-121a1,1,0,0,0-.84.45l-15,23a1,1,0,0,0-.05.11l0,.08A1,1,0,0,0-137,70V95h2V71h6V93h-3v2h8V93h-3V79h62V93h-3v2h8V93h-3V71h6V95h2V70A1,1,0,0,0-55.07,69.64ZM-65,77h-62V71h62ZM524,232h2v-8h-2Zm-92-8h-2v8h2Zm0-48h-2v8h2Zm0,16h-2v8h2Zm0,16h-2v8h2Zm92,8h2v-8h-2Zm-50,28h8v-2h-8Zm50-60h2v-8h-2Zm-82,60h8v-2h-8Zm16,0h8v-2h-8Zm-26-84h-2v8h2Zm-2-8h2v-2h2v-2h-4Zm94,16h2v-8h-2Zm-2-18h2v2h2v-4h-4Zm-90,90h-2v4h4v-2h-2Zm92-40h2v-8h-2Zm-74-52h-8v2h8Zm8,2h8v-2h-8Zm24,0v-2h-8v2Zm42,92h-2v2h4v-4h-2Zm-34-92h8v-2h-8Zm16,94h8v-2h-8Zm-16,0h8v-2h-8Zm16-94h8v-2h-8ZM-142-105h-2v8h2Zm0,16h-2v8h2Zm50-60h-8v2h8Zm-50,28h-2v8h2Zm92,66h-2v2h4v-4h-2Zm-92-2h-2v4h4v-2h-2Zm34-92h-8v2h8Zm16,94h-8v2h8Zm-52-90h2v-2h2v-2h-4Zm36,90h-8v2h8Zm-34-18h-2v8h2Zm92-56h2v-8h-2Zm0,64h2v-8h-2ZM-60-55h-8v2h8Zm0-94h-8v2h8Zm-64,0h-8v2h8Zm0,94h-8v2h8Zm74-58h2v-8h-2Zm-92-24h-2v8h2Zm92,56h2v-8h-2Zm-2-66h2v2h2v-4h-4Zm2,50h2v-8h-2ZM-76-55h-8v2h8Zm0-94h-8v2h8Zm221,12h-2v8h2Zm18,82h-8v2h8Zm48,0h-8v2h8Zm-68-90h2v-2h2v-2h-4Zm20-4h-8v2h8ZM145-57h-2v4h4v-2h-2Zm34-92h-8v2h8Zm0,94h-8v2h8Zm-34-66h-2v8h2Zm66-28h-8v2h8ZM195-55h-8v2h8Zm24,2h8v-2h-8Zm18-60h2v-8h-2Zm0,16h2v-8h-2Zm0,16h2v-8h-2Zm0,16h2v-8h-2Zm0-64h2v-8h-2Zm-2-18h2v2h2v-4h-4Zm-40-2h-8v2h8Zm42,94h-2v2h4v-4h-2Zm-18-92h8v-2h-8ZM145-89h-2v8h2Zm0-16h-2v8h2Zm0,32h-2v8h2Zm144,0h-2v8h2Zm92-56h2v-8h-2Zm-2-18h2v2h2v-4h-4Zm-40-2h-8v2h8Zm16,94h-8v2h8Zm8,2h8v-2h-8Zm18-60h2v-8h-2Zm-94-32h2v-2h2v-2h-4Zm94,80h2v-8h-2ZM339-55h-8v2h8Zm42,0h-2v2h4v-4h-2Zm-92-2h-2v4h4v-2h-2Zm34-92h-8v2h8Zm58,68h2v-8h-2Zm0-16h2v-8h-2Zm-92,8h-2v8h2Zm0-16h-2v8h2Zm66-44h-8v2h8Zm-66,28h-2v8h2Zm0-16h-2v8h2Zm18-12h-8v2h8Zm16,94h-8v2h8Zm-24,2h8v-2h-8Zm64-94h8v-2h-8Zm87-2h-8v2h8Zm24,94v2h8v-2Zm50-58h2v-8h-2Zm0-16h2v-8h-2ZM434-55h-2v-2h-2v4h4Zm-2-82h-2v8h2Zm0-10h2v-2h-4v4h2Zm0,26h-2v8h2Zm18,66h-8v2h8ZM432-73h-2v8h2Zm0-32h-2v8h2Zm34-44h-8v2h8ZM432-89h-2v8h2Zm92-8h2v-8h-2Zm0,16h2v-8h-2Zm0,16h2v-8h-2ZM514-55h-8v2h8Zm10,0h-2v2h4v-4h-2Zm-10-94h-8v2h8Zm-32,0h-8v2h8Zm40,0v2h2v2h2v-4Zm-24,0h-8v2h8ZM-144,3h2V1h2V-1h-4Zm2,24h-2v8h2Zm0,64h-2v4h4V93h-2Zm92-40h2V43h-2Zm-92-40h-2v8h2Zm0,64h-2v8h2Zm0-16h-2v8h2Zm0-16h-2v8h2Zm92-8h2V27h-2ZM-84,95h8V93h-8ZM-92-1h-8V1h8Zm-16,0h-8V1h8Zm32,0h-8V1h8Zm26,94h-2v2h4V91h-2Zm0-26h2V59h-2Zm0,16h2V75h-2Zm-50,12h8V93h-8ZM-124-1h-8V1h8Zm8,96h8V93h-8Zm66-76h2V11h-2ZM-60-1h-8V1h8Zm8,2h2V3h2V-1h-4ZM76,96h8V94H76ZM84,0H76V2h8ZM68,94H60v2h8ZM68,0H60V2h8ZM52,0H44V2h8ZM94,94H92v2h4V92H94Zm0-74h2V12H94Zm0,16h2V28H94ZM92,2h2V4h2V0H92Zm2,50h2V44H94Zm0,16h2V60H94Zm0,16h2V76H94ZM20,0H12V2h8ZM2,60H0v8H2ZM2,28H0v8H2ZM36,0H28V2h8ZM2,44H0v8H2ZM2,92H0v4H4V94H2ZM2,76H0v8H2ZM0,4H2V2H4V0H0ZM12,96h8V94H12Zm24-2H28v2h8ZM2,12H0v8H2ZM52,94H44v2h8ZM195,0h-8V2h8ZM179,0h-8V2h8ZM163,0h-8V2h8ZM145,28h-2v8h2ZM211,0h-8V2h8ZM145,12h-2v8h2Zm0,32h-2v8h2Zm0,16h-2v8h2Zm0,16h-2v8h2Zm74,20h8V94h-8Zm-40-2h-8v2h8Zm58-26h2V60h-2ZM211,94h-8v2h8Zm26-10h2V76h-2ZM195,94h-8v2h8Zm-40,2h8V94h-8ZM143,4h2V2h2V0h-4Zm2,88h-2v4h4V94h-2Zm92,2h-2v2h4V92h-2ZM235,2h2V4h2V0h-4Zm2,18h2V12h-2ZM219,2h8V0h-8Zm18,34h2V28h-2Zm0,16h2V44h-2Zm52,8h-2v8h2Zm34,34h-8v2h8ZM289,76h-2v8h2Zm10,20h8V94h-8Zm40-2h-8v2h8ZM287,4h2V2h2V0h-4Zm12-2h8V0h-8Zm32,0h8V0h-8Zm50,82h2V76h-2Zm0-16h2V60h-2Zm0,26h-2v2h4V92h-2Zm0-42h2V44h-2ZM379,2h2V4h2V0h-4Zm2,34h2V28h-2ZM347,2h8V0h-8Zm34,18h2V12h-2Zm-92-8h-2v8h2Zm0,80h-2v4h4V94h-2ZM363,2h8V0h-8ZM315,2h8V0h-8Zm48,94h8V94h-8ZM289,44h-2v8h2Zm66,50h-8v2h8ZM289,28h-2v8h2ZM76,150h8v-2H76Zm0,94h8v-2H76Zm18-76h2v-8H94Zm0,16h2v-8H94Zm0,16h2v-8H94Zm-2-50h2v2h2v-4H92Zm2,82h2v-8H94Zm0-16h2v-8H94Zm0,26H92v2h4v-4H94ZM0,152H2v-2H4v-2H0Zm28,92h8v-2H28ZM2,160H0v8H2Zm0,16H0v8H2Zm42,68h8v-2H44ZM2,208H0v8H2Zm0,16H0v8H2Zm0-32H0v8H2Zm10,52h8v-2H12Zm48,0h8v-2H60ZM12,150h8v-2H12ZM2,240H0v4H4v-2H2Zm42-90h8v-2H44Zm16,0h8v-2H60Zm-32,0h8v-2H28Zm115,2h2v-2h2v-2h-4Zm60,92h8v-2h-8Zm-32,0h8v-2h-8Zm16,0h8v-2h-8Zm50-28h2v-8h-2Zm-92,24h-2v4h4v-2h-2Zm92-40h2v-8h-2Zm-34-50h8v-2h-8Zm-48,0h8v-2h-8Zm0,94h8v-2h-8Zm82-12h2v-8h-2Zm-50-82h8v-2h-8Zm-16,0h8v-2h-8Zm-26,58h-2v8h2Zm92-24h2v-8h-2Zm-92-8h-2v8h2Zm0,16h-2v8h2Zm74,52h8v-2h-8Zm0-94h8v-2h-8Zm18,92h-2v2h4v-4h-2Zm-92-18h-2v8h2Zm0-64h-2v8h2Zm92,8h2v-8h-2Zm-2-18h2v2h2v-4h-4Zm146,35h2v-8h-2Zm-18,60h8v-2h-8Zm18-28h2v-8h-2Zm-18-66h8v-2h-8Zm18,18h2v-8h-2Zm0,64h2v-8h-2Zm0,10h-2v2h4v-4h-2Zm0-42h2v-8h-2Zm-2-50h2v2h2v-4h-4Zm-64,94h8v-2h-8Zm32,0h8v-2h-8Zm-16,0h8v-2h-8Zm-32-94h8v-2h-8Zm-10,90h-2v4h4v-2h-2Zm58-90h8v-2h-8Zm-48,94h8v-2h-8Zm-12-92h2v-2h2v-2h-4Zm2,8h-2v8h2Zm0,16h-2v8h2Zm42-26h8v-2h-8Zm-42,42h-2v8h2Zm0,32h-2v8h2Zm26-74h8v-2h-8Zm-26,58h-2v8h2ZM36-55H28v2h8ZM2-121H0v8H2Zm0-16H0v8H2ZM52-55H44v2h8ZM2-105H0v8H2ZM20-55H12v2h8Zm0-94H12v2h8ZM2-57H0v4H4v-2H2Zm90-90h2v2h2v-4H92ZM2-73H0v8H2ZM2-89H0v8H2ZM0-145H2v-2H4v-2H0Zm36-4H28v2h8ZM94-65h2v-8H94Zm0,10H92v2h4v-4H94ZM84-149H76v2h8ZM94-81h2v-8H94Zm0-16h2v-8H94Zm0-16h2v-8H94ZM68-149H60v2h8Zm26,20h2v-8H94ZM84-55H76v2h8ZM68-55H60v2h8ZM52-149H44v2h8ZM-132,150h8v-2h-8Zm0,94h8v-2h-8Zm16,0h8v-2h-8Zm16,0h8v-2h-8Zm-16-94h8v-2h-8Zm-28,2h2v-2h2v-2h-4Zm2,40h-2v8h2Zm0,48h-2v4h4v-2h-2Zm0-64h-2v8h2Zm42-26h8v-2h-8Zm-42,10h-2v8h2Zm0,64h-2v8h2Zm58-74h8v-2h-8Zm0,94h8v-2h-8Zm34-76h2v-8h-2Zm0,32h2v-8h-2Zm-92,8h-2v8h2Zm90-58h2v2h2v-4h-4Zm2,34h2v-8h-2Zm-18-34h8v-2h-8Zm18,66h2v-8h-2Zm-18,28h8v-2h-8Zm18-12h2v-8h-2Zm0,10h-2v2h4v-4h-2Z"/><path class="cls-2" d="M-96-72c14,0,25-5.71,25-13a1,1,0,0,0-.12-.48l-24-44a1,1,0,0,0-1.76,0l-24,44A1,1,0,0,0-121-85C-121-77.71-110-72-96-72Zm0-54.95,23,42.19C-73.29-78.91-83.7-74-96-74s-22.71-4.9-23-10.76ZM46,52.29a1,1,0,0,0-.12-.47l-15-28.29a1,1,0,0,0-1.77,0l-15,28.29a1,1,0,0,0-.12.47C14,57.17,21,61,30,61S46,57.17,46,52.29Zm-30,.23L30,26.13,44,52.52C43.7,56.06,37.4,59,30,59S16.25,56.06,16,52.52Zm43-13a1,1,0,0,0-1.78,0l-8,15.71a1,1,0,0,0-.11.45c0,3,4,5.29,9,5.29s9-2.32,9-5.29a1,1,0,0,0-.11-.45ZM58.05,59c-3.94,0-6.74-1.58-7-3.08l7-13.72,7,13.72C64.79,57.42,62,59,58.05,59ZM77.88,47.53a1,1,0,0,0-1.77,0l-5,9.43a1,1,0,0,0-.12.47c0,2,2.58,3.57,6,3.57s6-1.54,6-3.57a1,1,0,0,0-.12-.47ZM77,59c-2.19,0-3.71-.78-4-1.39l4-7.47,4,7.47C80.71,58.22,79.19,59,77,59ZM187.6,78l-1.05-2-8.67-16.47a1,1,0,0,0-1.77,0L167.45,76l-1.05,2-.28.53A1,1,0,0,0,166,79c0,3.36,4.83,6,11,6s11-2.64,11-6a1,1,0,0,0-.12-.47ZM177,83c-5.1,0-8.72-2-9-3.78l.64-1.22,1.05-2L177,62.15,184.29,76l1.05,2,.64,1.22C185.72,81,182.1,83,177,83ZM323-83c5,0,9-2.32,9-5.29a1,1,0,0,0-.11-.45l-8-15.71a1,1,0,0,0-1.78,0l-8,15.71a1,1,0,0,0-.11.45C314-85.32,318-83,323-83Zm0-18.8,7,13.72c-.24,1.5-3,3.08-7,3.08s-6.74-1.58-7-3.08ZM-79,189.53a1,1,0,0,0-.12-.48l-13-23.57a1,1,0,0,0-1.75,0l-13,23.57a1,1,0,0,0-.12.48c0,4.17,6.15,7.43,14,7.43S-79,193.7-79,189.53ZM-93,195c-6.86,0-11.7-2.69-12-5.2L-93,168l12,21.73C-81.3,192.27-86.14,195-93,195Zm-24.12-12.48a1,1,0,0,0-1.75,0l-13,23.57a1,1,0,0,0-.12.48c0,4.17,6.15,7.43,14,7.43s14-3.26,14-7.43a1,1,0,0,0-.12-.48ZM-118,212c-6.86,0-11.7-2.69-12-5.2L-118,185l12,21.73C-106.3,209.27-111.14,212-118,212Zm43.88-17.48a1,1,0,0,0-1.75,0l-13,23.57a1,1,0,0,0-.12.48c0,4.17,6.15,7.43,14,7.43s14-3.26,14-7.43a1,1,0,0,0-.12-.48ZM-75,224c-6.86,0-11.7-2.69-12-5.2L-75,197l12,21.73C-63.3,221.27-68.14,224-75,224Zm-24.14-39c0,3.28,4.65,7,6.14,7s6.14-3.72,6.14-7a3.83,3.83,0,0,0-3.83-4h-.06a4.65,4.65,0,0,0-2.25.75,4.73,4.73,0,0,0-2.32-.75A3.83,3.83,0,0,0-99.14,185Zm6.84-1.26a2.62,2.62,0,0,1,1.64-.74,1.86,1.86,0,0,1,1.8,2c0,2-3.19,4.61-4.14,5-1-.37-4.14-2.94-4.14-5a1.85,1.85,0,0,1,1.77-2,2.6,2.6,0,0,1,1.67.74A1,1,0,0,0-92.3,183.7Zm570.55.3a11,11,0,0,0,0,22h0a11,11,0,0,0,0-22Zm0,20a9,9,0,1,1,9-9A9,9,0,0,1,478.25,204Zm0-15a4,4,0,0,0-4,4h2a2,2,0,0,1,4,0c0,.67-.5,1.05-1.3,1.62a3,3,0,0,0-1.7,2.38h2a2.75,2.75,0,0,1,.85-.74,3.82,3.82,0,0,0-1.85-7.26Zm0,9a1.5,1.5,0,1,0,1.5,1.5A1.5,1.5,0,0,0,478.25,198Zm5.16-144.29c-.64.23-1.29.43-1.95.6L491,72.09c-.27,3.77-7,6.91-15,6.91s-14.72-3.14-15-6.91l9.53-17.78c-.66-.17-1.31-.37-1.95-.6l-9.47,17.67a1,1,0,0,0-.12.47C459,77,466.47,81,476,81s17-4,17-9.14a1,1,0,0,0-.12-.47ZM72.88-85.49l-24-44a1,1,0,0,0-1.76,0l-24,44A1,1,0,0,0,23-85c0,7.3,11,13,25,13s25-5.71,25-13A1,1,0,0,0,72.88-85.49ZM48-74c-12.3,0-22.71-4.9-23-10.76l23-42.19,11.14,20.44a1,1,0,0,0-.12.29l-1.82,9.1L50.12-98a1,1,0,0,0-1.06.64l-3,8a1,1,0,0,0,.58,1.29A1,1,0,0,0,47-88a1,1,0,0,0,.94-.65l2.72-7.27,7.22.9a1,1,0,0,0,1.1-.8l1.61-8L71-84.76C70.71-78.91,60.3-74,48-74ZM476.2,24h0a1,1,0,0,0-.87.5L464.23,43.8a16.11,16.11,0,0,0,1.48,1.44L476.18,27l10.14,18.18a16.09,16.09,0,0,0,1.48-1.44L477.07,24.51A1,1,0,0,0,476.2,24ZM-78,210v8a1,1,0,0,0,1,1h4a1,1,0,0,0,1-1,1,1,0,0,0-1-1h-3v-2h2a1,1,0,0,0,1-1,1,1,0,0,0-1-1h-2v-2h3a1,1,0,0,0,1-1,1,1,0,0,0-1-1h-4A1,1,0,0,0-78,210Zm-43-12a1,1,0,0,0,1,1h1v6h-1a1,1,0,0,0-1,1,1,1,0,0,0,1,1h4a1,1,0,0,0,1-1,1,1,0,0,0-1-1h-1v-6h1a1,1,0,0,0,1-1,1,1,0,0,0-1-1h-4A1,1,0,0,0-121,198ZM331.27,36l4.27-7.9,4.27,7.9h2.27l-5.67-10.48a1,1,0,0,0-1.76,0L329,36ZM478-92c10.65,0,19-4.39,19-10a1,1,0,0,0-.12-.48l-18-33a1,1,0,0,0-1.76,0l-18,33a1,1,0,0,0-.12.48C459-96.39,467.35-92,478-92Zm0-40.91,17,31.15C494.71-97.53,487-94,478-94s-16.71-3.53-17-7.76ZM-75.85,46.86l-7.27-13.34a1,1,0,0,0-1.76,0l-7.27,13.34L-92.78,48l-4.1,7.52A1,1,0,0,0-97,56c0,3.92,5.71,7,13,7s13-3.08,13-7a1,1,0,0,0-.12-.48L-75.22,48ZM-84,61c-6.27,0-10.71-2.47-11-4.77l11-20.14,11,20.14C-73.29,58.53-77.73,61-84,61Z"/></svg>